<?xml version="1.0" encoding="UTF-8" standalone="no"?>
<!-- Created with Inkscape (http://www.inkscape.org/) -->

<svg
   xmlns:ooo="http://xml.openoffice.org/svg/export"
   xmlns:dc="http://purl.org/dc/elements/1.1/"
   xmlns:cc="http://creativecommons.org/ns#"
   xmlns:rdf="http://www.w3.org/1999/02/22-rdf-syntax-ns#"
   xmlns:svg="http://www.w3.org/2000/svg"
   xmlns="http://www.w3.org/2000/svg"
   xmlns:sodipodi="http://sodipodi.sourceforge.net/DTD/sodipodi-0.dtd"
   xmlns:inkscape="http://www.inkscape.org/namespaces/inkscape"
   width="10.5in"
   height="2.25in"
   viewBox="0 0 266.7 57.15"
   version="1.1"
   id="svg8"
   sodipodi:docname="acenet-swc-mun_logo-blue.svg"
   inkscape:version="0.92.5 (2060ec1f9f, 2020-04-08)">
  <defs
     id="defs2">
    <clipPath
       clipPathUnits="userSpaceOnUse"
       id="presentation_clip_path">
      <rect
         id="rect3887"
         height="21590"
         width="27940"
         y="0"
         x="0" />
    </clipPath>
    <pattern
       id="WMFhbasepattern"
       patternUnits="userSpaceOnUse"
       width="6"
       height="6"
       x="0"
       y="0" />
    <clipPath
       id="clipPath20"
       clipPathUnits="userSpaceOnUse">
      <path
         inkscape:connector-curvature="0"
         id="path22"
         d="m 144.551,2397.05 107.773,-64.53 337.957,267.74 -429.312,-188.1 z M 537.273,2161.92 638.762,2101.16 2108.4,3265.43 1398.83,2954.54 Z M 1726.88,768.199 2641.04,1492.42 3058.34,2143.41 1682.76,877.91 Z M 1557.96,1188.23 3362.42,2617.74 3963.02,3554.7 1512.78,1300.55 Z M 4429.52,4282.45 3836.18,4022.47 199.531,676.859 c 1.16,-1.418 2.141,-2.918 3.34,-4.32 1.563,-1.84 3.301,-3.418 4.91,-5.199 L 4077.12,3732.7 Z M 2623.15,3490.98 925.703,1929.37 1029.61,1867.16 3643.84,3938.18 Z m -772.32,-3030.96 46.86,-116.5 14.02,11.109 252.17,393.391 z" />
    </clipPath>
    <linearGradient
       id="linearGradient24"
       spreadMethod="pad"
       gradientTransform="matrix(-4260.07,-3638.44,-3638.45,4260.07,4437.47,4279.06)"
       gradientUnits="userSpaceOnUse"
       y2="0"
       x2="1"
       y1="0"
       x1="0">
      <stop
         id="stop26"
         offset="0"
         style="stop-opacity:1;stop-color:#574a9e" />
      <stop
         id="stop28"
         offset="0.167857"
         style="stop-opacity:1;stop-color:#574a9e" />
      <stop
         id="stop30"
         offset="0.755385"
         style="stop-opacity:1;stop-color:#1cb7bc" />
      <stop
         id="stop32"
         offset="1"
         style="stop-opacity:1;stop-color:#ffffff" />
    </linearGradient>
    <g
       id="g3891"
       ooo:id-list="id3 id4 id5 id6 id7 id8 id9 id10 id11 id12 id13 id14 id15 id16 id17 id18 id19 id20 id21 id22 id23 id24 id25 id26 id27 id28 id29 id30 id31 id32 id33 id34 id35 id36 id37 id38 id39 id40 id41 id42 id43 id44 id45 id46 id47 id48 id49 id50 id51 id52 id53 id54 id55 id56 id57 id58 id59 id60 id61 id62 id63 id64 id65 id66 id67 id68 id69 id70 id71 id72 id73 id74 id75 id76 id77 id78 id79 id80 id81 id82 id83 id84 id85 id86 id87 id88 id89 id90 id91 id92"
       ooo:slide="id1" />
    <g
       transform="matrix(4.8828125e-4,0,0,-4.8828125e-4,0,0)"
       id="bullet-char-template(57356)">
      <path
         inkscape:connector-curvature="0"
         id="path3896"
         d="M 580,1141 1163,571 580,0 -4,571 Z" />
    </g>
    <g
       transform="matrix(4.8828125e-4,0,0,-4.8828125e-4,0,0)"
       id="bullet-char-template(57354)">
      <path
         inkscape:connector-curvature="0"
         id="path3899"
         d="M 8,1128 H 1137 V 0 H 8 Z" />
    </g>
    <g
       transform="matrix(4.8828125e-4,0,0,-4.8828125e-4,0,0)"
       id="bullet-char-template(10146)">
      <path
         inkscape:connector-curvature="0"
         id="path3902"
         d="M 174,0 602,739 174,1481 1456,739 Z M 1358,739 309,1346 659,739 Z" />
    </g>
    <g
       transform="matrix(4.8828125e-4,0,0,-4.8828125e-4,0,0)"
       id="bullet-char-template(10132)">
      <path
         inkscape:connector-curvature="0"
         id="path3905"
         d="M 2015,739 1276,0 H 717 l 543,543 H 174 v 393 h 1086 l -543,545 h 557 z" />
    </g>
    <g
       transform="matrix(4.8828125e-4,0,0,-4.8828125e-4,0,0)"
       id="bullet-char-template(10007)">
      <path
         inkscape:connector-curvature="0"
         id="path3908"
         d="m 0,-2 c -7,16 -16,29 -25,39 l 381,530 c -94,256 -141,385 -141,387 0,25 13,38 40,38 9,0 21,-2 34,-5 21,4 42,12 65,25 l 27,-13 111,-251 280,301 64,-25 24,25 c 21,-10 41,-24 62,-43 C 886,937 835,863 770,784 769,783 710,716 594,584 L 774,223 c 0,-27 -21,-55 -63,-84 l 16,-20 C 717,90 699,76 672,76 641,76 570,178 457,381 L 164,-76 c -22,-34 -53,-51 -92,-51 -42,0 -63,17 -64,51 -7,9 -10,24 -10,44 0,9 1,19 2,30 z" />
    </g>
    <g
       transform="matrix(4.8828125e-4,0,0,-4.8828125e-4,0,0)"
       id="bullet-char-template(10004)">
      <path
         inkscape:connector-curvature="0"
         id="path3911"
         d="M 285,-33 C 182,-33 111,30 74,156 52,228 41,333 41,471 c 0,78 14,145 41,201 34,71 87,106 158,106 53,0 88,-31 106,-94 l 23,-176 c 8,-64 28,-97 59,-98 l 735,706 c 11,11 33,17 66,17 42,0 63,-15 63,-46 V 965 c 0,-36 -10,-64 -30,-84 L 442,47 C 390,-6 338,-33 285,-33 Z" />
    </g>
    <g
       transform="matrix(4.8828125e-4,0,0,-4.8828125e-4,0,0)"
       id="bullet-char-template(9679)">
      <path
         inkscape:connector-curvature="0"
         id="path3914"
         d="M 813,0 C 632,0 489,54 383,161 276,268 223,411 223,592 c 0,181 53,324 160,431 106,107 249,161 430,161 179,0 323,-54 432,-161 108,-107 162,-251 162,-431 0,-180 -54,-324 -162,-431 C 1136,54 992,0 813,0 Z" />
    </g>
    <g
       transform="matrix(4.8828125e-4,0,0,-4.8828125e-4,0,0)"
       id="bullet-char-template(8226)">
      <path
         inkscape:connector-curvature="0"
         id="path3917"
         d="m 346,457 c -73,0 -137,26 -191,78 -54,51 -81,114 -81,188 0,73 27,136 81,188 54,52 118,78 191,78 73,0 134,-26 185,-79 51,-51 77,-114 77,-187 0,-75 -25,-137 -76,-188 -50,-52 -112,-78 -186,-78 z" />
    </g>
    <g
       transform="matrix(4.8828125e-4,0,0,-4.8828125e-4,0,0)"
       id="bullet-char-template(8211)">
      <path
         inkscape:connector-curvature="0"
         id="path3920"
         d="M -4,459 H 1135 V 606 H -4 Z" />
    </g>
  </defs>
  <sodipodi:namedview
     id="base"
     pagecolor="#ffffff"
     bordercolor="#666666"
     borderopacity="1.0"
     inkscape:pageopacity="0.0"
     inkscape:pageshadow="2"
     inkscape:zoom="1.4"
     inkscape:cx="462.21249"
     inkscape:cy="145.4768"
     inkscape:document-units="mm"
     inkscape:current-layer="layer1"
     showgrid="false"
     inkscape:window-width="1920"
     inkscape:window-height="1017"
     inkscape:window-x="1352"
     inkscape:window-y="-8"
     inkscape:window-maximized="1"
     showguides="true"
     inkscape:guide-bbox="true"
     units="in"
     width="10000000mm">
    <sodipodi:guide
       position="37.419642,340.93453"
       orientation="0,1"
       id="guide440"
       inkscape:locked="false" />
    <sodipodi:guide
       position="25.324404,334.69793"
       orientation="0,1"
       id="guide442"
       inkscape:locked="false" />
  </sodipodi:namedview>
  <metadata
     id="metadata5">
    <rdf:RDF>
      <cc:Work
         rdf:about="">
        <dc:format>image/svg+xml</dc:format>
        <dc:type
           rdf:resource="http://purl.org/dc/dcmitype/StillImage" />
        <dc:title />
      </cc:Work>
    </rdf:RDF>
  </metadata>
  <g
     inkscape:label="Layer 1"
     inkscape:groupmode="layer"
     id="layer1"
     transform="translate(0,-239.85)">
    <g
       style="fill-rule:evenodd;stroke-width:28.22200012;stroke-linejoin:round"
       id="g229"
       transform="matrix(0.01,0,0,0.01,36.401636,253.74629)">
      <g
         transform="translate(-562.8506,-28.041813)"
         id="g3924">
        <g
           class="Master_Slide"
           id="id2">
          <g
             class="Background"
             id="bg-id2" />
          <g
             class="BackgroundObjects"
             id="bo-id2" />
        </g>
      </g>
      <g
         transform="translate(0,-1000.0003)"
         inkscape:label="Layer 1"
         id="layer1-4">
        <g
           inkscape:export-ydpi="72"
           inkscape:export-xdpi="72"
           transform="matrix(66.282002,0,0,66.282002,20179.161,1079.649)"
           id="g3534">
          <path
             style="fill:#ffffff;fill-opacity:1;fill-rule:nonzero;stroke:none"
             d="m 15.08125,26.19375 h 4.586111 v 1.411111 h -3.086805 v 1.234864 h 2.910416 V 30.1625 h -2.910416 v 1.411111 h 3.263194 v 1.322776 h -4.7625 z"
             id="path3515"
             inkscape:connector-curvature="0" />
          <path
             style="fill:#ffffff;fill-opacity:1;fill-rule:nonzero;stroke:none"
             d="m 51.77028,26.19375 h 1.411111 v 6.702637 H 51.77028 Z"
             id="path3523"
             inkscape:connector-curvature="0" />
          <path
             style="fill:#ffffff;fill-opacity:1;fill-rule:nonzero;stroke:none"
             d="m 65.528613,26.19375 h 1.499165 v 5.379861 h 2.734169 v 1.322776 h -4.233334 z"
             id="path3527"
             inkscape:connector-curvature="0" />
        </g>
      </g>
      <g
         transform="matrix(0.67495085,0,0,0.67495085,-293.01328,-126.54302)"
         id="g4406">
        <path
           inkscape:connector-curvature="0"
           id="path14"
           style="fill:#364ca0;fill-opacity:1;fill-rule:nonzero;stroke:none"
           d="m 5146.6212,1777.1712 h -159.311 l -404.0814,763.8522 h 138.4606 l 88.0274,-170.9192 h 514.4872 l 88.0274,170.9192 h 138.4819 z m -275.4252,478.9833 196.9581,-370.0844 194.5813,370.0844 z m 1232.3519,-503.2502 c -132.943,0 -244.431,34.1244 -334.4532,102.3414 -103.3919,78.0638 -155.0879,178.6651 -155.0879,301.74 0,125.2078 50.9851,226.4881 152.9763,303.8516 89.3219,67.5273 201.5208,101.291 336.5648,101.291 96.3569,0 179.1744,-14.2504 248.4631,-42.7298 69.2675,-28.4901 131.3514,-74.7321 186.2094,-138.7472 l -108.6655,-60.1315 c -77.3847,83.7088 -183.5779,125.5473 -318.6219,125.5473 -111.8381,0 -200.6401,-26.5377 -266.406,-79.6555 -65.7765,-53.0966 -98.6382,-122.9158 -98.6382,-209.4259 0,-83.6982 33.2331,-152.6155 99.6993,-206.7944 66.4662,-54.147 152.4564,-81.2364 257.9598,-81.2364 139.2671,0 247.5718,41.1487 324.9566,123.4463 l 115.0001,-41.1488 c -102.0019,-132.2321 -248.6541,-198.3481 -439.9567,-198.3481 z m 1493.93,674.1694 H 6924.359 v -225.7772 h 447.3418 V 2087.3469 H 6924.359 v -196.2366 h 643.5784 v -113.9391 h -770.1868 v 763.8522 h 799.7273 z m 1142.6162,-649.9025 h -126.6084 v 626.7072 l -583.4362,-626.7072 h -157.1994 v 763.8522 h 126.5978 v -626.3889 l 583.1497,626.3889 h 157.4965 z m 1118.3492,649.9025 h -673.1189 v -225.7772 h 447.3418 v -113.9496 h -447.3418 v -196.2366 h 643.5784 V 1777.1712 H 9058.716 v 763.8522 h 799.7273 z m 1109.9027,-649.9025 h -856.697 v 113.9391 h 365.045 v 649.9131 h 126.608 v -649.9131 h 365.044 v -113.9391" />
        <g
           id="g16"
           transform="matrix(1.0610826,0,0,-1.0610826,408.95103,4838.3839)">
          <g
             clip-path="url(#clipPath20)"
             id="g18">
            <path
               inkscape:connector-curvature="0"
               id="path34"
               style="fill:url(#linearGradient24);fill-opacity:1;fill-rule:nonzero;stroke:none"
               d="m 144.551,2397.05 107.773,-64.53 337.957,267.74 -429.312,-188.1 z M 537.273,2161.92 638.762,2101.16 2108.4,3265.43 1398.83,2954.54 Z M 1726.88,768.199 2641.04,1492.42 3058.34,2143.41 1682.76,877.91 Z M 1557.96,1188.23 3362.42,2617.74 3963.02,3554.7 1512.78,1300.55 Z M 4429.52,4282.45 3836.18,4022.47 199.531,676.859 c 1.16,-1.418 2.141,-2.918 3.34,-4.32 1.563,-1.84 3.301,-3.418 4.91,-5.199 L 4077.12,3732.7 Z M 2623.15,3490.98 925.703,1929.37 1029.61,1867.16 3643.84,3938.18 Z m -772.32,-3030.96 46.86,-116.5 14.02,11.109 252.17,393.391 -313.05,-288" />
          </g>
        </g>
        <path
           inkscape:connector-curvature="0"
           id="path36"
           style="fill:#000000;fill-opacity:1;fill-rule:nonzero;stroke:none"
           d="m 4643.5513,3061.3252 c 7.8732,-12.9134 17.6564,-23.5136 29.3602,-31.79 11.7037,-8.2659 25.0203,-14.4201 39.9603,-18.4629 14.9295,-4.0321 30.6653,-6.0587 47.2288,-6.0587 10.4835,0 22.0918,1.0186 34.8035,3.0346 12.7224,2.0267 24.5216,5.6556 35.419,10.8974 10.8973,5.2523 19.9801,12.3191 27.2486,21.1898 7.2578,8.8812 10.8973,20.3834 10.8973,34.5064 0,7.6716 -0.7109,16.1497 -2.1222,25.4235 -1.4218,9.2951 -3.1302,18.6751 -5.1462,28.1612 -2.0267,9.486 -4.1383,18.7599 -6.3559,27.8428 -2.2283,9.0828 -4.1382,17.0622 -5.7511,23.9168 -3.6289,17.3593 -6.7591,31.7794 -9.38,43.2815 -2.6314,11.5128 -4.7536,21.105 -6.3665,28.766 -1.6128,7.6716 -2.8224,13.9214 -3.6289,18.7599 -0.817,4.8492 -1.2096,9.6877 -1.2096,14.5369 0,5.6555 2.2177,9.1783 6.6636,10.5896 4.4353,1.4218 8.8707,2.1221 13.3166,2.1221 2.8225,0 5.3479,-0.095 7.5655,-0.3077 2.2177,-0.191 4.7431,-0.4987 7.5655,-0.9019 l -5.4433,29.6679 c -10.0909,2.016 -20.585,3.024 -31.4823,3.024 -21.4021,0 -32.4904,-11.0989 -33.2968,-33.2967 0,-2.8225 0.096,-5.645 0.2971,-8.4781 0.2016,-2.8225 0.5093,-5.6449 0.9125,-8.478 l -1.2096,-1.2097 c -10.8973,18.1658 -26.2406,32.1933 -46.0192,42.0826 -19.7785,9.8787 -40.5545,14.8233 -62.3492,14.8233 -14.5368,0 -27.8534,-1.6128 -39.9603,-4.8385 -12.107,-3.2363 -22.5056,-8.2659 -31.1853,-15.1311 -8.6796,-6.8652 -15.5342,-15.7464 -20.585,-26.6438 -5.0401,-10.8973 -7.5655,-24.0123 -7.5655,-39.3555 0,-16.5423 2.9392,-30.4637 8.7858,-41.7748 5.8465,-11.29 13.8153,-20.5744 23.9062,-27.8428 10.0909,-7.2685 21.593,-13.0195 34.517,-17.2532 12.9027,-4.2444 26.4209,-7.5656 40.5546,-9.9954 20.585,-3.2257 39.2494,-4.7325 56.0039,-4.5415 16.7439,0.2122 31.1852,-1.3051 43.2922,-4.5414 12.4995,-3.2257 21.8901,-9.0723 28.1505,-17.5503 6.2498,-8.4781 9.38,-23.0043 9.38,-43.5893 0,-9.2845 -2.1116,-16.85 -6.3559,-22.7072 -4.2337,-5.8465 -9.4861,-10.388 -15.7359,-13.6243 -6.271,-3.2257 -13.3272,-5.4433 -21.1898,-6.6529 -7.8732,-1.2097 -15.4387,-1.8251 -22.7072,-1.8251 -12.1069,0 -23.6091,1.2202 -34.5064,3.6395 -10.8973,2.4193 -20.7972,6.3559 -29.6678,11.7992 -8.8813,5.454 -16.2558,12.7224 -22.1024,21.7947 -5.8466,9.0828 -9.7832,20.0863 -11.7992,32.9996 h -38.1459 c 2.4192,-17.7519 7.5655,-33.0845 15.4387,-46.0085 z m 172.2455,96.8662 c -3.2363,3.6289 -7.7777,6.5681 -13.6243,8.7752 -5.8571,2.2283 -12.0114,3.9366 -18.4628,5.1462 -6.462,1.2097 -13.0195,2.0267 -19.6831,2.4193 -6.653,0.4138 -12.404,0.817 -17.2532,1.2203 -11.7037,0.8064 -24.7232,1.9099 -39.0478,3.3211 -14.3246,1.4219 -27.7579,4.446 -40.2575,9.0829 -12.5208,4.6475 -23.0043,11.5021 -31.4823,20.585 -8.4781,9.0829 -12.7118,21.9008 -12.7118,38.443 0,10.0909 1.91,18.6751 5.7511,25.7313 3.8305,7.0668 8.9767,12.924 15.4387,17.5609 6.4514,4.6475 13.9214,7.9687 22.3995,9.9848 8.478,2.0267 17.1471,3.0347 26.0283,3.0347 30.6759,0 55.4947,-8.2765 74.4668,-24.8293 18.9722,-16.5423 31.4823,-38.7402 37.5411,-66.5936 l 12.107,-52.6721 z m 389.8842,-78.0956 c -3.6289,-9.2845 -8.7751,-17.0516 -15.4387,-23.312 -6.653,-6.2498 -14.7385,-11.099 -24.2139,-14.5369 -9.4861,-3.4166 -19.8847,-5.1462 -31.1746,-5.1462 -23.0149,0 -42.889,5.0614 -59.6329,15.1416 -16.7545,10.0909 -30.782,23.2165 -42.0825,39.3556 -11.3005,16.1391 -19.6725,34.3048 -25.1264,54.4866 -5.4434,20.1818 -8.1704,40.3636 -8.1704,60.5347 0,13.7305 1.7084,26.5483 5.1463,38.4537 3.4273,11.9053 8.7751,22.1978 16.0435,30.8669 7.2685,8.6902 16.3407,15.4387 27.2486,20.2879 10.8974,4.8385 23.8001,7.2684 38.7402,7.2684 25.4341,0 46.921,-7.2684 64.482,-21.8053 17.5503,-14.5262 30.3575,-33.2967 38.443,-56.301 h 38.1353 c -11.7038,36.3315 -29.4663,63.6756 -53.277,82.0323 -23.8107,18.3779 -54.6882,27.5457 -92.6219,27.5457 -38.7507,0 -68.5247,-11.6931 -89.3007,-35.1112 -20.7972,-23.3969 -31.1852,-54.4866 -31.1852,-93.2374 0,-24.2139 3.8305,-48.4278 11.5021,-72.6417 7.6717,-24.2245 18.7706,-45.8069 33.3074,-64.7791 14.5262,-18.9721 32.2781,-34.4109 53.277,-46.3162 20.9776,-11.9054 44.7989,-17.8686 71.4321,-17.8686 16.9561,0 32.6919,2.1221 47.2287,6.3664 14.5263,4.2338 27.0364,10.8019 37.5305,19.6725 10.4941,8.8813 18.5584,19.9802 24.2245,33.2968 5.645,13.3166 8.2659,29.063 7.8627,47.2182 h -38.1353 c 0.7958,-11.6932 -0.6049,-22.1873 -4.2444,-31.4717 z m 362.6462,0 c -3.6289,-9.2845 -8.7751,-17.0516 -15.4387,-23.312 -6.653,-6.2498 -14.7385,-11.099 -24.2139,-14.5369 -9.4861,-3.4166 -19.8847,-5.1462 -31.1746,-5.1462 -23.0149,0 -42.8996,5.0614 -59.6435,15.1416 -16.7439,10.0909 -30.782,23.2165 -42.0719,39.3556 -11.3005,16.1391 -19.6725,34.3048 -25.1264,54.4866 -5.4434,20.1818 -8.1704,40.3636 -8.1704,60.5347 0,13.7305 1.7084,26.5483 5.1463,38.4537 3.4273,11.9053 8.7751,22.1978 16.0435,30.8669 7.2685,8.6902 16.3407,15.4387 27.238,20.2879 10.8973,4.8385 23.8107,7.2684 38.7508,7.2684 25.4235,0 46.921,-7.2684 64.482,-21.8053 17.5503,-14.5262 30.3575,-33.2967 38.443,-56.301 h 38.1353 c -11.7038,36.3315 -29.4663,63.6756 -53.277,82.0323 -23.8213,18.3779 -54.6882,27.5457 -92.6219,27.5457 -38.7507,0 -68.5247,-11.6931 -89.3007,-35.1112 -20.7972,-23.3969 -31.1852,-54.4866 -31.1852,-93.2374 0,-24.2139 3.8305,-48.4278 11.5021,-72.6417 7.6611,-24.2245 18.7706,-45.8069 33.3074,-64.7791 14.5262,-18.9721 32.2781,-34.4109 53.277,-46.3162 20.9776,-11.9054 44.7989,-17.8686 71.4321,-17.8686 16.9561,0 32.6919,2.1221 47.2287,6.3664 14.5263,4.2338 27.0364,10.8019 37.5305,19.6725 10.4941,8.8813 18.5584,19.9802 24.2139,33.2968 5.6556,13.3166 8.2765,29.063 7.8733,47.2182 h -38.1353 c 0.7958,-11.6932 -0.6049,-22.1873 -4.2444,-31.4717 z m 367.7925,55.9933 c 0.2016,-3.8305 0.3077,-7.7671 0.3077,-11.7993 0,-26.6437 -7.5761,-47.8336 -22.7072,-63.5694 -15.131,-15.7465 -36.0237,-23.6197 -62.6569,-23.6197 -15.7465,0 -30.1772,3.1408 -43.2922,9.3906 -13.1149,6.2604 -24.8187,14.5262 -35.1112,24.8187 -10.2925,10.2925 -18.8767,22.1023 -25.7312,35.4189 -6.8652,13.3166 -11.916,27.2486 -15.1417,41.7749 h 204.0356 c 0,-4.4354 0.095,-8.5736 0.2971,-12.4147 z m -210.9857,68.7157 c 0,14.1336 1.8145,27.2486 5.4434,39.3555 3.6395,12.107 9.1783,22.5056 16.6484,31.1747 7.47,8.6902 16.9561,15.5448 28.4582,20.585 11.5021,5.0507 24.9142,7.5761 40.2575,7.5761 25.4341,0 47.0165,-7.1623 64.7791,-21.4975 17.7625,-14.3247 30.2726,-32.9997 37.5411,-56.004 h 38.1459 c -10.5047,35.5251 -27.4608,62.5721 -50.8577,81.1304 -23.4181,18.5689 -53.8818,27.8428 -91.4229,27.8428 -41.5732,0 -73.1616,-11.6931 -94.744,-35.1112 -21.6037,-23.3969 -32.3949,-55.6963 -32.3949,-96.8663 0,-25.0203 3.7244,-49.3403 11.205,-72.9494 7.4594,-23.6091 18.4629,-44.7034 32.9891,-63.2723 14.5368,-18.5584 32.2887,-33.4984 53.2769,-44.7989 20.9883,-11.29 44.8096,-16.9561 71.4427,-16.9561 18.9722,0 35.7161,2.9392 50.2529,8.7857 14.5262,5.8572 26.9409,14.1336 37.2334,24.8187 10.2925,10.6957 18.0596,23.5136 23.3014,38.4431 5.2417,14.94 7.8732,31.4823 7.8732,49.648 0,8.8813 -0.2016,17.7625 -0.6048,26.6332 -0.4032,8.8919 -1.2096,17.9641 -2.4193,27.2486 h -244.5901 c -1.2097,7.2684 -1.8145,15.3432 -1.8145,24.2139 z m 440.7419,-310.5789 -93.2373,432.2745 h -37.5305 l 92.6219,-432.2745 z m 293.3257,241.8632 c 0.2016,-3.8305 0.2971,-7.7671 0.2971,-11.7993 0,-26.6437 -7.5655,-47.8336 -22.6966,-63.5694 -15.1416,-15.7465 -36.0237,-23.6197 -62.6675,-23.6197 -15.7359,0 -30.1666,3.1408 -43.2816,9.3906 -13.1256,6.2604 -24.8187,14.5262 -35.1112,24.8187 -10.2925,10.2925 -18.8767,22.1023 -25.7313,35.4189 -6.8758,13.3166 -11.9159,27.2486 -15.1416,41.7749 h 204.025 c 0,-4.4354 0.096,-8.5736 0.3077,-12.4147 z m -210.9857,68.7157 c 0,14.1336 1.8145,27.2486 5.4434,39.3555 3.6289,12.107 9.1783,22.5056 16.6483,31.1747 7.4701,8.6902 16.9561,15.5448 28.4583,20.585 11.5021,5.0507 24.9142,7.5761 40.2575,7.5761 25.4341,0 47.0165,-7.1623 64.779,-21.4975 17.7626,-14.3247 30.2727,-32.9997 37.5412,-56.004 h 38.1353 c -10.4941,35.5251 -27.4502,62.5721 -50.8471,81.1304 -23.4181,18.5689 -53.8818,27.8428 -91.4229,27.8428 -41.5732,0 -73.1616,-11.6931 -94.7441,-35.1112 -21.6036,-23.3969 -32.3948,-55.6963 -32.3948,-96.8663 0,-25.0203 3.7244,-49.3403 11.205,-72.9494 7.4594,-23.6091 18.4629,-44.7034 32.9891,-63.2723 14.5368,-18.5584 32.2887,-33.4984 53.2769,-44.7989 20.9882,-11.29 44.7989,-16.9561 71.4427,-16.9561 18.9616,0 35.7161,2.9392 50.2529,8.7857 14.5262,5.8572 26.9409,14.1336 37.2334,24.8187 10.2925,10.6957 18.0596,23.5136 23.3014,38.4431 5.2417,14.94 7.8732,31.4823 7.8732,49.648 0,8.8813 -0.2122,17.7625 -0.6048,26.6332 -0.4032,8.8919 -1.2097,17.9641 -2.4193,27.2486 h -244.5901 c -1.2097,7.2684 -1.8145,15.3432 -1.8145,24.2139 z m 411.074,-190.7084 -15.7358,72.0475 h 1.2096 c 12.1069,-22.601 27.0364,-40.9578 44.7989,-55.0914 17.7519,-14.123 40.5652,-21.1898 68.408,-21.1898 h 10.2925 c 2.0161,0 3.8305,0 5.454,0 1.6022,0 3.2257,0.2122 4.8385,0.6048 l -8.4674,38.1459 c -3.6396,0 -7.2685,-0.096 -10.908,-0.3077 -3.6289,-0.2016 -7.2578,-0.2971 -10.8973,-0.2971 -16.9455,0.4032 -31.9916,3.8305 -45.096,10.2819 -13.1256,6.462 -24.5216,15.0462 -34.2093,25.7313 -9.6877,10.7063 -17.6564,22.9193 -23.9168,36.6285 -6.2604,13.7304 -11.0034,27.8535 -14.2291,42.3797 l -35.1112,163.4704 H 6558.19 l 66.5935,-312.404 z m 197.0537,47.2288 c 7.8732,-12.9134 17.6564,-23.5136 29.3707,-31.79 11.6932,-8.2659 25.0204,-14.4201 39.9498,-18.4629 14.9294,-4.0321 30.6759,-6.0587 47.2288,-6.0587 10.4835,0 22.0917,1.0186 34.8141,3.0346 12.7118,2.0267 24.511,5.6556 35.4083,10.8974 10.8973,5.2523 19.9802,12.3191 27.2486,21.1898 7.2684,8.8812 10.8973,20.3834 10.8973,34.5064 0,7.6716 -0.7109,16.1497 -2.1221,25.4235 -1.4113,9.2951 -3.1302,18.6751 -5.1463,28.1612 -2.016,9.486 -4.1382,18.7599 -6.3559,27.8428 -2.2176,9.0828 -4.1382,17.0622 -5.751,23.9168 -3.6289,17.3593 -6.7591,31.7794 -9.38,43.2815 -2.6315,11.5128 -4.7536,21.105 -6.3559,28.766 -1.6234,7.6716 -2.8331,13.9214 -3.6395,18.7599 -0.8064,4.8492 -1.2096,9.6877 -1.2096,14.5369 0,5.6555 2.2176,9.1783 6.6636,10.5896 4.4353,1.4218 8.8706,2.1221 13.3166,2.1221 2.8224,0 5.3478,-0.095 7.5655,-0.3077 2.2176,-0.191 4.743,-0.4987 7.5761,-0.9019 l -5.454,29.6679 c -10.0909,2.016 -20.585,3.024 -31.4823,3.024 -21.402,0 -32.4903,-11.0989 -33.2967,-33.2967 0,-2.8225 0.095,-5.645 0.2971,-8.4781 0.2016,-2.8225 0.5093,-5.6449 0.9125,-8.478 l -1.2096,-1.2097 c -10.8974,18.1658 -26.2406,32.1933 -46.0086,42.0826 -19.7892,9.8787 -40.5652,14.8233 -62.3598,14.8233 -14.5368,0 -27.8534,-1.6128 -39.9604,-4.8385 -12.1069,-3.2363 -22.5055,-8.2659 -31.1746,-15.1311 -8.6903,-6.8652 -15.5449,-15.7464 -20.585,-26.6438 -5.0401,-10.8973 -7.5761,-24.0123 -7.5761,-39.3555 0,-16.5423 2.9392,-30.4637 8.7857,-41.7748 5.8466,-11.29 13.8153,-20.5744 23.9168,-27.8428 10.0803,-7.2685 21.5825,-13.0195 34.5064,-17.2532 12.9134,-4.2444 26.4316,-7.5656 40.5652,-9.9954 20.5744,-3.2257 39.2389,-4.7325 55.9934,-4.5415 16.7438,0.2122 31.1852,-1.3051 43.2921,-4.5414 12.4996,-3.2257 21.8902,-9.0723 28.1506,-17.5503 6.2497,-8.4781 9.3799,-23.0043 9.3799,-43.5893 0,-9.2845 -2.1115,-16.85 -6.3559,-22.7072 -4.2337,-5.8465 -9.486,-10.388 -15.7358,-13.6243 -6.2604,-3.2257 -13.3166,-5.4433 -21.1898,-6.6529 -7.8733,-1.2097 -15.4388,-1.8251 -22.7072,-1.8251 -12.107,0 -23.6091,1.2202 -34.5064,3.6395 -10.8973,2.4193 -20.7972,6.3559 -29.6679,11.7992 -8.8812,5.454 -16.2452,12.7224 -22.0917,21.7947 -5.8572,9.0828 -9.7938,20.0863 -11.8099,32.9996 h -38.1459 c 2.4299,-17.7519 7.5761,-33.0845 15.4388,-46.0085 z m 172.2455,96.8662 c -3.2363,3.6289 -7.7777,6.5681 -13.6243,8.7752 -5.8572,2.2283 -12.0114,3.9366 -18.4628,5.1462 -6.462,1.2097 -13.0195,2.0267 -19.6725,2.4193 -6.6636,0.4138 -12.4147,0.817 -17.2532,1.2203 -11.7144,0.8064 -24.7338,1.9099 -39.0585,3.3211 -14.3246,1.4219 -27.7473,4.446 -40.2574,9.0829 -12.5102,4.6475 -23.0043,11.5021 -31.4824,20.585 -8.478,9.0829 -12.7117,21.9008 -12.7117,38.443 0,10.0909 1.9099,18.6751 5.751,25.7313 3.8306,7.0668 8.9768,12.924 15.4388,17.5609 6.4514,4.6475 13.9214,7.9687 22.3995,9.9848 8.478,2.0267 17.147,3.0347 26.0389,3.0347 30.6653,0 55.484,-8.2765 74.4668,-24.8293 18.9615,-16.5423 31.4717,-38.7402 37.5305,-66.5936 l 12.1069,-52.6721 z m 219.7714,-144.095 19.9696,-94.4469 h 38.1459 l -19.9802,94.4469 h 62.3599 l -6.0588,32.0872 h -63.5695 l -42.9844,200.396 c -1.6129,7.2684 -2.7164,12.8179 -3.3212,16.6484 -0.6048,3.8411 -0.9125,8.1809 -0.9125,13.0195 0,5.6556 1.5173,10.6957 4.5414,15.131 3.0241,4.446 8.1703,6.6636 15.4387,6.6636 14.9295,0 29.8589,-1.2096 44.7989,-3.6289 l -6.6636,32.692 c -6.4513,0.8064 -12.9133,1.4112 -19.3647,1.8144 -6.462,0.3926 -12.924,0.6048 -19.3754,0.6048 -7.2684,0 -14.3352,-0.5093 -21.1898,-1.5173 -6.8652,-1.008 -13.0195,-3.1196 -18.4628,-6.3559 -5.454,-3.2257 -9.7938,-7.7671 -13.0195,-13.6243 -3.2363,-5.8359 -4.8492,-13.4121 -4.8492,-22.6965 0,-3.2257 0.3077,-7.6611 0.9126,-13.3166 0.6048,-5.6556 1.7083,-11.9054 3.3318,-18.7706 l 42.9844,-207.0596 h -56.301 l 7.2578,-32.0872 z m 402.8931,121.9927 c 0.2016,-3.8305 0.3077,-7.7671 0.3077,-11.7993 0,-26.6437 -7.5655,-47.8336 -22.7072,-63.5694 -15.131,-15.7465 -36.0237,-23.6197 -62.6569,-23.6197 -15.7464,0 -30.1772,3.1408 -43.2922,9.3906 -13.1149,6.2604 -24.8187,14.5262 -35.1112,24.8187 -10.2925,10.2925 -18.8766,22.1023 -25.7312,35.4189 -6.8652,13.3166 -11.9054,27.2486 -15.1311,41.7749 h 204.025 c 0,-4.4354 0.095,-8.5736 0.2971,-12.4147 z m -210.9857,68.7157 c 0,14.1336 1.8145,27.2486 5.454,39.3555 3.6289,12.107 9.1678,22.5056 16.6484,31.1747 7.4594,8.6902 16.9455,15.5448 28.4476,20.585 11.5021,5.0507 24.9248,7.5761 40.2681,7.5761 25.4235,0 47.006,-7.1623 64.7791,-21.4975 17.7519,-14.3247 30.2621,-32.9997 37.5305,-56.004 h 38.1459 c -10.5047,35.5251 -27.4502,62.5721 -50.8577,81.1304 -23.4181,18.5689 -53.8818,27.8428 -91.4229,27.8428 -41.5732,0 -73.1616,-11.6931 -94.744,-35.1112 -21.5931,-23.3969 -32.3949,-55.6963 -32.3949,-96.8663 0,-25.0203 3.735,-49.3403 11.205,-72.9494 7.4595,-23.6091 18.4629,-44.7034 32.9997,-63.2723 14.5262,-18.5584 32.2781,-33.4984 53.277,-44.7989 20.9776,-11.29 44.7989,-16.9561 71.4321,-16.9561 18.9721,0 35.7266,2.9392 50.2528,8.7857 14.5262,5.8572 26.9409,14.1336 37.2334,24.8187 10.2925,10.6957 18.0596,23.5136 23.312,38.4431 5.2417,14.94 7.8626,31.4823 7.8626,49.648 0,8.8813 -0.2016,17.7625 -0.6048,26.6332 -0.4032,8.8919 -1.2096,17.9641 -2.4193,27.2486 h -244.5901 c -1.2096,7.2684 -1.8145,15.3432 -1.8145,24.2139 z m 761.0085,121.6956 13.932,-56.3117 h -1.2096 c -13.3272,20.585 -28.766,36.5331 -46.3163,47.8336 -17.5609,11.2899 -40.0665,16.9455 -67.5061,16.9455 -39.9603,0 -69.7237,-11.5976 -89.3007,-34.8035 -19.577,-23.2059 -29.3601,-53.9773 -29.3601,-92.3248 0,-23.8107 3.9366,-47.8336 11.7992,-72.0475 7.8732,-24.2245 19.2693,-46.0192 34.2093,-65.3839 14.9294,-19.3754 32.8936,-35.1219 53.8818,-47.2288 20.9776,-12.107 44.5973,-18.1657 70.8378,-18.1657 24.6066,0 46.0086,5.1462 64.1743,15.4387 18.1551,10.2925 30.6653,27.7579 37.5305,52.375 h 1.2096 l 37.5412,-178.6014 h 38.1459 l -92.6325,432.2745 z m -39.345,-39.6633 c 16.9455,-11.0883 31.1746,-25.2113 42.6768,-42.3796 11.5021,-17.1471 20.2879,-36.1087 26.336,-56.9059 6.0588,-20.7866 9.0829,-40.8623 9.0829,-60.2377 0,-27.8534 -7.5655,-49.839 -22.7072,-65.9887 -15.131,-16.1391 -36.6285,-24.2245 -64.4713,-24.2245 -21.7947,0 -41.0745,5.454 -57.8184,16.3513 -16.7545,10.8973 -30.6759,24.8187 -41.7748,41.7748 -11.1096,16.9561 -19.4815,35.6205 -25.1265,56.0039 -5.6556,20.3834 -8.478,40.0559 -8.478,59.0281 0,26.6331 6.8652,48.8416 20.585,66.5935 13.7198,17.7625 34.9096,26.6438 63.5694,26.6438 21.7947,0 41.17,-5.5495 58.1261,-16.659 z m 331.7581,-392.6112 -13.3166,61.1502 h -38.1459 l 13.3272,-61.1502 z m -26.0283,119.8705 -67.209,312.404 h -37.5305 l 66.5935,-312.404 z m 106.851,248.8345 c 5.0401,10.0909 11.7037,18.1551 19.9802,24.2139 8.2658,6.0588 17.7519,10.2925 28.4582,12.7118 10.6851,2.4192 21.4869,3.6395 32.3842,3.6395 8.4781,0 17.3487,-1.1142 26.6438,-3.3318 9.2739,-2.2177 17.7519,-5.6556 25.4236,-10.2925 7.661,-4.6369 14.0169,-10.6002 19.0676,-17.858 5.0508,-7.2684 7.5761,-15.9481 7.5761,-26.039 0,-10.4941 -2.5253,-19.1632 -7.5761,-26.0284 -5.0507,-6.8652 -11.5021,-12.8072 -19.3647,-17.8686 -7.8733,-5.0401 -16.8606,-9.4755 -26.9409,-13.3166 -10.1015,-3.8305 -20.1924,-7.7671 -30.2727,-11.7992 -10.0909,-4.0321 -20.1924,-8.372 -30.2727,-13.0195 -10.0909,-4.6369 -19.0677,-10.2925 -26.9409,-16.9561 -7.8732,-6.653 -14.2291,-14.5262 -19.0676,-23.6091 -4.8492,-9.0829 -7.2685,-20.0757 -7.2685,-32.989 0,-15.3433 3.6289,-28.3522 10.8974,-39.0585 7.2684,-10.6851 16.5422,-19.4602 27.8534,-26.3361 11.2899,-6.8546 23.8107,-11.8947 37.5305,-15.131 13.7198,-3.2257 26.8347,-4.8491 39.3555,-4.8491 16.5423,0 31.6733,1.825 45.4037,5.4539 13.7198,3.6289 25.5191,9.4861 35.419,17.5609 9.8893,8.0749 17.5609,18.4629 23.0043,31.1746 5.4539,12.7118 7.9687,28.1506 7.5655,46.3163 h -38.1353 c 0.7958,-12.107 -0.6049,-22.3995 -4.2444,-30.8775 -3.6289,-8.4781 -8.7751,-15.5343 -15.4387,-21.1898 -6.653,-5.645 -14.6323,-9.7832 -23.9062,-12.4147 -9.2951,-2.6209 -19.1738,-3.9366 -29.6679,-3.9366 -8.478,0 -17.2532,0.817 -26.336,2.4299 -9.0829,1.6128 -17.3594,4.3398 -24.8188,8.1703 -7.4806,3.8411 -13.7304,9.189 -18.7705,16.0436 -5.0508,6.8652 -7.5655,15.7358 -7.5655,26.6438 0,7.2578 1.8144,13.7198 5.4433,19.3647 3.6289,5.6556 8.4781,10.7063 14.5262,15.1417 6.0588,4.4459 13.0195,8.478 20.8928,12.1069 7.8732,3.6289 16.2451,7.2684 25.1264,10.8973 10.8973,4.446 22.2933,8.9874 34.1987,13.6243 11.9053,4.637 22.8026,10.388 32.6919,17.2532 9.8893,6.8652 18.1658,15.1311 24.8294,24.8188 6.653,9.6876 9.9848,21.7946 9.9848,36.3314 0,17.7626 -3.7351,32.692 -11.1945,44.7989 -7.4806,12.107 -17.2532,21.9008 -29.3707,29.3602 -12.107,7.47 -25.6358,12.8073 -40.5546,16.0436 -14.9401,3.2257 -29.8801,4.8385 -44.8095,4.8385 -15.3433,0 -30.1666,-2.0161 -44.4912,-6.0482 -14.3352,-4.0321 -26.9409,-10.4941 -37.8382,-19.3753 -10.8973,-8.8707 -19.5876,-20.2773 -26.039,-34.2093 -6.462,-13.9214 -9.2739,-30.7714 -8.478,-50.55 h 37.5411 c 0,15.3432 2.5147,28.055 7.5655,38.1459 z m 546.9881,-182.8351 c -3.6289,-9.2845 -8.7752,-17.0516 -15.4388,-23.312 -6.653,-6.2498 -14.7384,-11.099 -24.2139,-14.5369 -9.4861,-3.4166 -19.8847,-5.1462 -31.1746,-5.1462 -23.0043,0 -42.889,5.0614 -59.6328,15.1416 -16.7545,10.0909 -30.7821,23.2165 -42.0826,39.3556 -11.3005,16.1391 -19.6725,34.3048 -25.1264,54.4866 -5.4434,20.1818 -8.1704,40.3636 -8.1704,60.5347 0,13.7305 1.7084,26.5483 5.1463,38.4537 3.4273,11.9053 8.7751,22.1978 16.0436,30.8669 7.2684,8.6902 16.3512,15.4387 27.2486,20.2879 10.8973,4.8385 23.8107,7.2684 38.7401,7.2684 25.4341,0 46.9211,-7.2684 64.482,-21.8053 17.5503,-14.5262 30.3682,-33.2967 38.443,-56.301 h 38.1353 c -11.7037,36.3315 -29.4663,63.6756 -53.2769,82.0323 -23.8107,18.3779 -54.6882,27.5457 -92.6219,27.5457 -38.7508,0 -68.5141,-11.6931 -89.3008,-35.1112 -20.7972,-23.3969 -31.1852,-54.4866 -31.1852,-93.2374 0,-24.2139 3.8411,-48.4278 11.5128,-72.6417 7.661,-24.2245 18.7599,-45.8069 33.2967,-64.7791 14.5263,-18.9721 32.2782,-34.4109 53.277,-46.3162 20.9776,-11.9054 44.7989,-17.8686 71.4321,-17.8686 16.9561,0 32.6919,2.1221 47.2288,6.3664 14.5262,4.2338 27.0364,10.8019 37.5305,19.6725 10.4941,8.8813 18.5689,19.9802 24.2245,33.2968 5.6449,13.3166 8.2658,29.063 7.8626,47.2182 h -38.1353 c 0.8064,-11.6932 -0.6048,-22.1873 -4.2443,-31.4717 z m 306.048,207.3567 c 15.9375,-10.6957 29.2541,-24.32 39.9498,-40.8729 10.6957,-16.5423 18.7705,-34.708 24.2139,-54.4866 5.4539,-19.7679 8.1809,-38.7507 8.1809,-56.9058 0,-29.0631 -7.6716,-52.6722 -23.0042,-70.8379 -15.3433,-18.1657 -38.3582,-27.2486 -69.0235,-27.2486 -20.9882,0 -39.5571,5.1462 -55.6962,15.4387 -16.1497,10.2925 -29.6679,23.4181 -40.5652,39.3556 -10.8973,15.9481 -19.1737,33.7106 -24.8187,53.277 -5.6556,19.5875 -8.4781,38.443 -8.4781,56.6087 0,30.2727 7.6611,54.7943 23.0043,73.5543 15.3327,18.7705 38.9417,28.1611 70.8379,28.1611 20.9776,0 39.4404,-5.3479 55.3991,-16.0436 z m 36.9257,-274.258 c 15.131,5.4434 28.1505,13.4227 39.0478,23.9062 10.8973,10.5047 19.3754,23.312 25.4342,38.4536 6.0481,15.1311 9.0722,32.3843 9.0722,51.7596 0,26.2406 -3.6289,51.8657 -10.8973,76.8861 -7.2578,25.0309 -18.0596,47.2288 -32.3842,66.5935 -14.3353,19.3754 -32.2994,34.9202 -53.8818,46.624 -21.6036,11.7037 -46.9211,17.5503 -75.9841,17.5503 -40.3636,0 -71.2411,-11.6931 -92.6325,-35.1112 -21.3915,-23.3969 -32.0872,-54.8792 -32.0872,-94.447 0,-25.4235 3.8305,-50.2423 11.5022,-74.4668 7.6716,-24.2139 18.9721,-45.6053 33.9122,-64.1742 14.9188,-18.5584 33.1906,-33.4984 54.7837,-44.7989 21.593,-11.29 46.3162,-16.9561 74.1696,-16.9561 18.1552,0 34.8141,2.7269 49.9452,8.1809 z m 213.4049,0.9019 36.9363,269.4195 h 1.2096 l 146.5143,-269.4195 h 41.7748 l -176.1821,312.404 h -41.17 l -49.0326,-312.404 z m 525.2041,121.9927 c 0.202,-3.8305 0.308,-7.7671 0.308,-11.7993 0,-26.6437 -7.576,-47.8336 -22.707,-63.5694 -15.132,-15.7465 -36.024,-23.6197 -62.657,-23.6197 -15.747,0 -30.178,3.1408 -43.293,9.3906 -13.115,6.2604 -24.818,14.5262 -35.111,24.8187 -10.292,10.2925 -18.876,22.1023 -25.731,35.4189 -6.865,13.3166 -11.905,27.2486 -15.1311,41.7749 h 204.0251 c 0,-4.4354 0.09,-8.5736 0.297,-12.4147 z m -210.9857,68.7157 c 0,14.1336 1.8145,27.2486 5.4434,39.3555 3.6393,12.107 9.1783,22.5056 16.6483,31.1747 7.47,8.6902 16.956,15.5448 28.458,20.585 11.502,5.0507 24.915,7.5761 40.258,7.5761 25.434,0 47.016,-7.1623 64.779,-21.4975 17.762,-14.3247 30.273,-32.9997 37.541,-56.004 h 38.146 c -10.505,35.5251 -27.461,62.5721 -50.858,81.1304 -23.418,18.5689 -53.882,27.8428 -91.423,27.8428 -41.573,0 -73.161,-11.6931 -94.7438,-35.1112 -21.6036,-23.3969 -32.3948,-55.6963 -32.3948,-96.8663 0,-25.0203 3.735,-49.3403 11.205,-72.9494 7.4594,-23.6091 18.4629,-44.7034 32.9891,-63.2723 14.5365,-18.5584 32.2885,-33.4984 53.2765,-44.7989 20.989,-11.29 44.81,-16.9561 71.443,-16.9561 18.972,0 35.727,2.9392 50.253,8.7857 14.526,5.8572 26.941,14.1336 37.233,24.8187 10.293,10.6957 18.06,23.5136 23.312,38.4431 5.232,14.94 7.863,31.4823 7.863,49.648 0,8.8813 -0.202,17.7625 -0.605,26.6332 -0.403,8.8919 -1.209,17.9641 -2.419,27.2486 h -244.5902 c -1.2097,7.2684 -1.8145,15.3432 -1.8145,24.2139 z m 411.0737,-190.7084 -15.736,72.0475 h 1.21 c 12.107,-22.601 27.036,-40.9578 44.799,-55.0914 17.763,-14.123 40.565,-21.1898 68.419,-21.1898 h 10.292 c 2.006,0 3.831,0 5.443,0 1.613,0 3.226,0.2122 4.85,0.6048 l -8.478,38.1459 c -3.64,0 -7.269,-0.096 -10.898,-0.3077 -3.639,-0.2016 -7.268,-0.2971 -10.897,-0.2971 -16.956,0.4032 -31.992,3.8305 -45.107,10.2819 -13.125,6.462 -24.521,15.0462 -34.209,25.7313 -9.688,10.7063 -17.656,22.9193 -23.906,36.6285 -6.271,13.7304 -11.004,27.8535 -14.229,42.3797 l -35.122,163.4704 h -37.531 l 66.594,-312.404 z m 150.748,395.3382 c 11.704,0 21.583,-3.6289 29.668,-10.8973 8.064,-7.2578 14.526,-14.9295 19.365,-23.0043 l 28.458,-49.0326 -57.51,-312.404 h 39.949 l 44.81,265.1752 h 1.209 l 144.085,-265.1752 h 41.17 l -222.191,385.6611 c -16.15,27.8428 -41.371,41.7642 -75.676,41.7642 -5.242,0 -10.59,-0.4032 -16.044,-1.2096 -5.443,-0.8064 -10.993,-1.4113 -16.648,-1.8145 l 7.268,-30.8775 c 10.898,1.2097 21.593,1.8145 32.087,1.8145 v 0" />
      </g>
      <g
         inkscape:export-ydpi="72"
         inkscape:export-xdpi="72"
         transform="matrix(0.87748914,0,0,0.87748914,592.36526,-698.1453)"
         id="g3562"
         style="fill-rule:evenodd;stroke-width:28.22200012;stroke-linejoin:round">
        <g
           id="id34"
           transform="translate(-572.45088,785.22234)"
           style="fill:#2b3990;fill-opacity:1">
          <path
             style="fill:#2b3990;fill-opacity:1;stroke:none"
             inkscape:connector-curvature="0"
             id="path4094"
             d="m 12771,986 c -40,-43 -239,-38 -294,-39 -302,-2 -866,15 -1148,15 -11,0 -50,19 -44,35 -200,0 -306,1 -548,-2 -131,-1 -443,15 -451,-216 -4,-116 102,-218 227,-342 -80,-24 -160,29 -241,74 -39,39 -66,65 -99,98 -122,178 -170,358 -141,538 110,-21 192,130 115,201 l -69,1 c -33,0 -59,34 -58,74 l 2,160 c 1,41 28,68 60,68 h 348 c 32,-1 58,-34 57,-75 l -2,-160 c 0,-40 -27,-73 -60,-72 h -43 c -77,-215 170,-187 310,-185 262,2 350,1 581,1 13,16 7,46 43,61 23,9 1412,6 1437,0 25,-6 18,-18 27,-27 12,-48 39,-155 -9,-208 z m -2343,388 v 170 c 0,0 -5,-111 -50,-118 -46,-7 -20,-52 -20,-52 z m 2328,-312 c 0,0 -41,-14 -74,-35 -71,-46 -1331,-5 -1331,-5 l 36,-30 c 0,0 1284,-22 1328,0 44,22 41,70 41,70 z" />
        </g>
        <g
           id="id35"
           transform="translate(-572.45088,785.22234)"
           style="fill:#2b3990;fill-opacity:1">
          <path
             style="fill:#2b3990;fill-opacity:1;stroke:none"
             inkscape:connector-curvature="0"
             id="path4099"
             d="m 9763,2584 c 25,-36 37,-79 37,-129 0,-33 -9,-63 -27,-88 -19,-26 -46,-49 -82,-68 -36,-19 -83,-36 -140,-50 -50,-12 -87,-22 -115,-30 -28,-8 -50,-19 -67,-32 -18,-13 -26,-30 -26,-51 0,-23 11,-43 35,-58 23,-14 52,-22 86,-22 34,0 60,6 80,17 20,11 37,26 51,45 17,21 32,38 45,48 13,10 28,15 46,15 25,0 44,-6 58,-19 13,-13 20,-29 20,-49 0,-18 -7,-38 -19,-57 -13,-20 -33,-38 -58,-55 -25,-16 -57,-29 -94,-39 -38,-10 -81,-15 -129,-15 -60,0 -112,10 -155,29 -42,19 -75,46 -96,78 -22,32 -33,67 -33,103 0,40 12,75 35,102 24,28 55,51 95,68 40,17 92,34 155,50 57,14 99,28 124,43 26,16 39,41 39,76 0,23 -13,43 -38,60 -24,17 -56,26 -94,26 -46,0 -84,-9 -111,-25 -27,-17 -50,-42 -70,-76 -9,-17 -19,-30 -29,-39 -9,-9 -23,-13 -42,-13 -21,0 -38,7 -52,20 -13,14 -20,30 -20,49 0,30 11,60 33,90 22,30 57,55 104,75 47,20 104,30 169,30 69,0 129,-9 177,-28 47,-18 84,-45 108,-81 z" />
        </g>
        <g
           id="id36"
           transform="translate(-572.45088,785.22234)"
           style="fill:#2b3990;fill-opacity:1">
          <path
             style="fill:#2b3990;fill-opacity:1;stroke:none"
             inkscape:connector-curvature="0"
             id="path4104"
             d="m 11083,1671 c -61,0 -109,8 -143,23 -34,15 -59,40 -73,73 -14,33 -22,79 -22,136 v 61 h -48 c -60,0 -89,20 -89,62 0,19 7,33 21,45 14,12 34,18 61,18 h 55 v 496 c 0,36 9,63 25,81 17,19 38,28 63,28 26,0 48,-10 64,-28 17,-18 25,-45 25,-81 v -496 h 50 c 33,0 58,-4 76,-12 18,-8 26,-25 26,-54 0,-40 -33,-59 -102,-59 h -50 v -49 c 0,-37 5,-67 15,-87 10,-21 33,-32 69,-32 12,0 27,1 45,4 18,3 30,4 37,4 14,0 26,-5 37,-17 10,-11 16,-25 16,-41 0,-50 -54,-75 -158,-75 z" />
        </g>
        <g
           id="id37"
           transform="translate(-572.45088,785.22234)"
           style="fill:#2b3990;fill-opacity:1">
          <path
             style="fill:#2b3990;fill-opacity:1;stroke:none"
             inkscape:connector-curvature="0"
             id="path4109"
             d="m 11728,2605 c 0,-16 -5,-30 -16,-41 -11,-12 -24,-17 -38,-17 -10,0 -24,2 -42,6 -19,4 -34,6 -45,6 -22,0 -37,-6 -47,-17 -9,-10 -15,-24 -17,-40 -2,-16 -4,-39 -4,-68 v -346 h 40 c 36,0 64,-5 82,-15 19,-9 28,-25 28,-48 0,-18 -7,-33 -20,-44 -13,-12 -32,-18 -57,-18 h -73 v -131 c 0,-31 -1,-55 -5,-72 -3,-16 -10,-29 -22,-41 -18,-16 -39,-25 -61,-25 -16,0 -31,4 -44,11 -12,8 -22,18 -29,30 -7,11 -11,25 -13,42 -1,17 -2,40 -2,70 v 116 h -25 c -27,0 -48,6 -62,18 -13,11 -20,26 -20,44 0,18 6,33 20,45 13,12 32,18 58,18 h 29 v 361 c 0,57 4,103 14,137 9,33 28,60 57,78 29,19 72,29 129,29 60,0 107,-8 139,-23 31,-16 46,-37 46,-65 z" />
        </g>
        <g
           id="id38"
           transform="translate(-572.45088,785.22234)"
           style="fill:#2b3990;fill-opacity:1">
          <path
             style="fill:#2b3990;fill-opacity:1;stroke:none"
             inkscape:connector-curvature="0"
             id="path4114"
             d="m 12639,2550 152,-445 c 14,-38 21,-66 21,-85 0,-19 -8,-37 -23,-51 -15,-15 -34,-22 -55,-22 -21,0 -37,5 -48,14 -11,10 -19,21 -24,34 -5,13 -11,35 -19,64 l -127,431 -115,-401 c -11,-39 -20,-66 -26,-81 -6,-15 -17,-29 -32,-42 -15,-13 -36,-19 -62,-19 -26,0 -47,6 -61,19 -15,13 -26,26 -31,40 -6,15 -14,43 -26,83 l -115,401 -125,-431 c -12,-41 -24,-71 -35,-88 -9,-16 -29,-24 -58,-24 -22,0 -41,8 -56,23 -15,15 -22,31 -22,50 0,15 7,44 22,85 l 151,445 c 4,12 9,28 17,48 7,20 15,37 24,51 9,15 21,25 34,33 14,7 31,11 50,11 38,0 65,-12 80,-36 16,-25 30,-63 44,-113 l 107,-377 111,377 c 9,33 17,59 25,79 7,20 19,37 34,50 15,14 37,20 63,20 26,0 47,-6 62,-18 15,-13 26,-27 33,-44 7,-16 17,-43 30,-81 z" />
        </g>
        <g
           id="id39"
           transform="translate(-572.45088,785.22234)"
           style="fill:#2b3990;fill-opacity:1">
          <path
             style="fill:#2b3990;fill-opacity:1;stroke:none"
             inkscape:connector-curvature="0"
             id="path4119"
             d="m 13568,2551 c -12,-38 -18,-76 -18,-111 1,-37 1,-71 1,-101 1,-30 1,-68 1,-111 0,-68 -10,-123 -29,-164 -19,-41 -51,-71 -96,-90 -46,-18 -111,-28 -191,-28 -72,0 -134,10 -182,30 -48,19 -83,44 -106,74 -22,30 -34,61 -34,93 0,19 7,35 22,48 14,12 31,19 51,19 21,0 35,-4 41,-11 7,-9 19,-26 36,-52 17,-27 39,-47 63,-61 24,-13 61,-20 109,-20 56,0 94,12 112,36 18,24 28,61 30,111 l 1,3 -4,1 c -38,11 -74,21 -109,29 -33,8 -73,17 -120,27 -49,10 -76,15 -88,18 -55,12 -98,36 -130,71 -31,35 -47,77 -47,127 0,36 10,71 29,102 19,32 46,57 81,75 35,18 77,28 124,28 51,0 98,-9 139,-26 42,-18 85,-44 129,-78 l 4,-3 3,4 c 21,34 40,59 59,77 17,17 35,26 53,26 21,0 41,-8 58,-23 17,-15 25,-30 25,-48 0,-11 -6,-35 -17,-72 z m -190,-200 c 0,65 -8,113 -25,141 -15,26 -39,48 -71,64 -31,17 -66,25 -103,25 -36,0 -65,-10 -87,-31 -22,-21 -34,-46 -34,-75 0,-29 10,-51 29,-67 19,-16 39,-26 59,-32 20,-5 56,-13 108,-24 52,-11 92,-22 118,-32 l 7,-2 v 33 z" />
        </g>
        <g
           id="id40"
           transform="translate(-572.45088,785.22234)"
           style="fill:#2b3990;fill-opacity:1">
          <path
             style="fill:#2b3990;fill-opacity:1;stroke:none"
             inkscape:connector-curvature="0"
             id="path4124"
             d="m 14145,1976 c -36,-19 -74,-29 -112,-29 -38,0 -68,10 -90,28 -23,19 -46,48 -68,85 l -8,14 -1,-16 c -1,-37 -8,-65 -21,-84 -13,-18 -34,-27 -63,-27 -58,0 -86,39 -86,121 v 517 c 0,36 8,63 25,81 16,18 37,27 62,27 26,0 48,-9 64,-27 17,-17 26,-45 26,-81 v -155 c 0,-56 1,-104 5,-142 4,-39 10,-73 20,-102 10,-29 24,-51 42,-66 31,-25 76,-30 140,-9 32,10 43,12 48,12 17,0 33,-7 47,-21 15,-14 22,-31 22,-53 0,-30 -17,-54 -52,-73 z" />
        </g>
        <g
           id="id41"
           transform="translate(-572.45088,785.22234)"
           style="fill:#2b3990;fill-opacity:1">
          <path
             style="fill:#2b3990;fill-opacity:1;stroke:none"
             inkscape:connector-curvature="0"
             id="path4129"
             d="m 14874,2559 c 13,-21 19,-40 19,-56 0,-18 -5,-31 -16,-41 -11,-9 -25,-14 -43,-14 -17,0 -29,3 -38,11 -23,22 -42,39 -56,51 -15,13 -31,25 -48,37 -18,11 -36,19 -55,25 -19,5 -40,8 -62,8 -34,0 -66,-9 -94,-26 -28,-16 -50,-41 -67,-74 -17,-33 -26,-71 -26,-114 v -4 h 368 c 47,0 85,-7 111,-21 25,-13 37,-42 37,-86 0,-50 -13,-99 -38,-147 -25,-47 -64,-87 -115,-117 -51,-30 -113,-45 -184,-45 -55,0 -106,9 -151,27 -45,17 -84,43 -114,76 -31,33 -55,73 -71,119 -16,46 -24,97 -24,151 0,115 33,207 98,274 65,67 158,101 275,101 52,0 98,-7 137,-21 40,-13 73,-30 99,-50 26,-20 46,-42 58,-64 z m -486,-299 c 6,-63 25,-112 55,-144 30,-33 70,-50 117,-50 50,0 91,17 121,49 30,32 48,81 53,145 v 5 h -347 z" />
        </g>
        <g
           id="id42"
           transform="translate(-572.45088,785.22234)"
           style="fill:#2b3990;fill-opacity:1">
          <path
             style="fill:#2b3990;fill-opacity:1;stroke:none"
             inkscape:connector-curvature="0"
             id="path4134"
             d="m 16055,2540 c 13,-25 20,-50 20,-72 0,-18 -7,-36 -21,-52 -14,-16 -32,-24 -53,-24 -18,0 -33,5 -45,16 -13,12 -25,28 -36,48 -21,36 -45,63 -72,81 -27,17 -60,26 -98,26 -29,0 -55,-5 -78,-16 -24,-11 -45,-27 -61,-49 -17,-20 -30,-46 -39,-76 -8,-29 -13,-62 -13,-97 0,-76 18,-136 52,-179 34,-44 80,-66 136,-66 39,0 71,9 97,26 25,18 49,44 72,79 12,17 24,30 34,37 9,8 21,11 35,11 22,0 42,-7 57,-21 16,-15 24,-32 24,-54 0,-20 -8,-43 -22,-68 -14,-24 -35,-48 -63,-70 -27,-21 -61,-39 -100,-53 -40,-14 -84,-21 -131,-21 -77,0 -143,16 -198,47 -55,32 -97,77 -126,134 -29,58 -44,125 -44,200 0,111 32,200 95,266 64,66 153,99 266,99 53,0 102,-7 144,-21 42,-15 78,-34 106,-57 28,-23 49,-48 62,-74 z" />
        </g>
        <g
           id="id43"
           transform="translate(-572.45088,785.22234)"
           style="fill:#2b3990;fill-opacity:1">
          <path
             style="fill:#2b3990;fill-opacity:1;stroke:none"
             inkscape:connector-curvature="0"
             id="path4139"
             d="m 16872,2551 c -12,-38 -18,-76 -18,-111 1,-37 1,-71 1,-101 1,-30 1,-68 1,-111 0,-68 -10,-123 -29,-164 -19,-41 -51,-71 -96,-90 -46,-18 -110,-28 -191,-28 -72,0 -133,10 -182,30 -48,19 -83,44 -106,74 -22,30 -34,61 -34,93 0,19 7,35 22,48 14,13 31,19 51,19 21,0 35,-4 41,-11 7,-9 19,-26 36,-52 18,-27 39,-47 63,-61 24,-13 61,-20 109,-20 56,0 94,12 112,36 18,24 28,61 31,111 v 3 l -4,1 c -38,12 -75,21 -109,29 -33,8 -73,17 -120,27 -49,10 -76,15 -87,18 -56,12 -99,36 -131,71 -31,35 -47,77 -47,127 0,36 10,71 29,102 19,31 46,57 81,75 35,18 77,28 124,28 51,0 98,-9 139,-26 42,-18 85,-44 129,-78 l 4,-3 3,4 c 21,34 40,59 59,77 17,17 35,26 53,26 21,0 41,-8 58,-23 17,-15 25,-30 25,-48 0,-11 -6,-35 -17,-72 z m -189,-200 c 0,65 -9,113 -26,141 -15,26 -39,48 -71,64 -31,17 -66,25 -103,25 -36,0 -65,-10 -87,-31 -22,-20 -34,-46 -34,-75 0,-29 10,-51 29,-67 19,-16 39,-26 59,-32 20,-5 56,-13 108,-24 52,-11 92,-22 118,-32 l 7,-2 z" />
        </g>
        <g
           id="id44"
           transform="translate(-572.45088,785.22234)"
           style="fill:#2b3990;fill-opacity:1">
          <path
             style="fill:#2b3990;fill-opacity:1;stroke:none"
             inkscape:connector-curvature="0"
             id="path4144"
             d="m 17450,1976 c -36,-19 -74,-29 -112,-29 -38,0 -68,10 -91,28 -22,19 -45,48 -67,85 l -8,14 v -16 c -2,-37 -9,-65 -22,-84 -13,-18 -34,-27 -63,-27 -58,0 -86,39 -86,121 v 517 c 0,36 8,63 25,81 16,18 37,27 62,27 26,0 48,-9 64,-27 17,-17 26,-45 26,-81 v -155 c 0,-56 2,-104 5,-142 4,-39 10,-73 20,-102 10,-29 24,-51 42,-66 31,-25 76,-30 140,-9 32,10 43,12 48,12 16,0 33,-7 47,-21 15,-14 22,-31 22,-53 0,-30 -17,-54 -52,-73 z" />
        </g>
        <g
           id="id45"
           transform="translate(-572.45088,785.22234)"
           style="fill:#2b3990;fill-opacity:1">
          <path
             style="fill:#2b3990;fill-opacity:1;stroke:none"
             inkscape:connector-curvature="0"
             id="path4149"
             d="m 18209,2594 c 27,-32 49,-72 65,-119 16,-47 24,-100 24,-156 0,-77 -14,-144 -41,-200 -28,-55 -66,-98 -113,-127 -47,-29 -99,-44 -155,-44 -47,0 -89,10 -126,30 -37,20 -73,52 -107,94 l -9,10 v -35 c 0,-33 -8,-58 -23,-75 -16,-16 -36,-25 -61,-25 -26,0 -46,8 -60,25 -15,16 -22,42 -22,76 v 802 c 0,39 5,69 16,90 11,19 32,29 66,29 57,0 84,-39 84,-118 v -292 l 9,10 c 32,41 66,72 101,93 36,21 80,31 132,31 43,0 84,-8 121,-26 38,-17 71,-41 99,-73 z m -113,-145 c -16,36 -38,64 -64,82 -27,19 -57,28 -89,28 -53,0 -98,-21 -133,-63 -36,-42 -54,-101 -54,-176 0,-79 18,-140 54,-181 36,-41 81,-62 133,-62 33,0 64,9 91,29 27,19 49,47 64,83 15,35 23,78 23,128 0,51 -9,95 -25,132 z" />
        </g>
        <g
           id="id46"
           transform="translate(-572.45088,785.22234)"
           style="fill:#2b3990;fill-opacity:1">
          <path
             style="fill:#2b3990;fill-opacity:1;stroke:none"
             inkscape:connector-curvature="0"
             id="path4154"
             d="m 19049,2559 c 13,-21 19,-40 19,-56 0,-18 -5,-31 -16,-41 -11,-10 -25,-14 -43,-14 -17,0 -29,3 -38,11 -23,22 -42,39 -56,51 -15,13 -31,25 -48,37 -18,11 -36,19 -55,25 -19,5 -40,8 -62,8 -34,0 -66,-9 -94,-26 -28,-16 -50,-41 -67,-74 -17,-33 -26,-71 -26,-114 v -4 h 368 c 47,0 85,-7 111,-21 25,-13 37,-42 37,-86 0,-50 -13,-99 -38,-147 -25,-47 -64,-87 -115,-117 -51,-30 -113,-45 -184,-45 -56,0 -106,9 -151,27 -45,17 -83,43 -114,76 -31,33 -55,73 -71,119 -16,46 -24,97 -24,151 0,115 33,207 98,274 65,67 158,101 275,101 52,0 98,-7 137,-21 40,-13 73,-30 99,-50 26,-20 45,-42 58,-64 z m -486,-299 c 6,-63 25,-112 55,-144 30,-33 70,-50 117,-50 50,0 91,17 121,49 30,32 48,81 53,145 v 5 h -347 z" />
        </g>
        <g
           id="id47"
           transform="translate(-572.45088,785.22234)"
           style="fill:#2b3990;fill-opacity:1">
          <path
             style="fill:#2b3990;fill-opacity:1;stroke:none"
             inkscape:connector-curvature="0"
             id="path4159"
             d="m 19847,2239 c 0,-40 -2,-74 -5,-100 -4,-26 -12,-50 -24,-72 -18,-38 -47,-68 -84,-89 -38,-20 -81,-31 -129,-31 -50,0 -94,10 -132,30 -38,20 -74,51 -106,93 l -8,11 v -36 c 0,-21 -4,-39 -11,-54 -8,-15 -18,-26 -30,-33 -13,-7 -27,-11 -42,-11 -25,0 -46,8 -60,25 -15,16 -22,42 -22,76 v 537 c 0,35 8,62 25,81 16,18 37,27 62,27 27,0 48,-9 65,-27 16,-17 25,-45 25,-81 v -233 c 0,-77 4,-128 13,-156 13,-36 34,-64 62,-84 28,-20 59,-30 93,-30 53,0 88,17 106,51 17,33 26,81 26,142 v 310 c 0,35 8,62 25,81 16,18 38,27 64,27 26,0 46,-9 63,-27 16,-18 24,-45 24,-81 z" />
        </g>
        <g
           id="id48"
           transform="translate(-572.45088,785.22234)"
           style="fill:#2b3990;fill-opacity:1">
          <path
             style="fill:#2b3990;fill-opacity:1;stroke:none"
             inkscape:connector-curvature="0"
             id="path4164"
             d="m 20429,2605 c 0,-17 -5,-30 -16,-41 -11,-12 -24,-17 -37,-17 -11,0 -25,2 -43,6 -19,4 -34,6 -45,6 -22,0 -37,-6 -47,-17 -9,-10 -15,-24 -17,-40 -2,-16 -4,-39 -4,-68 v -346 h 40 c 36,0 64,-5 83,-15 18,-9 27,-25 27,-48 0,-18 -7,-33 -20,-44 -13,-12 -32,-18 -57,-18 h -73 v -131 c 0,-31 -1,-55 -5,-72 -3,-16 -10,-29 -22,-41 -18,-16 -39,-25 -61,-25 -16,0 -31,4 -43,11 -13,8 -23,18 -30,30 -7,11 -11,25 -13,42 -1,17 -2,40 -2,70 v 116 h -25 c -27,0 -48,6 -62,18 -13,11 -20,26 -20,44 0,18 6,33 20,45 13,12 32,18 58,18 h 29 v 361 c 0,57 4,103 14,137 9,33 28,60 57,78 29,19 72,29 129,29 60,0 107,-8 139,-23 31,-16 46,-37 46,-65 z" />
        </g>
        <g
           id="id49"
           transform="translate(-572.45088,785.22234)"
           style="fill:#2b3990;fill-opacity:1">
          <path
             style="fill:#2b3990;fill-opacity:1;stroke:none"
             inkscape:connector-curvature="0"
             id="path4169"
             d="m 20963,1976 c -36,-19 -74,-29 -112,-29 -38,0 -68,10 -91,28 -22,19 -45,48 -67,85 l -8,14 -1,-16 c -1,-37 -8,-65 -21,-84 -13,-18 -34,-27 -63,-27 -58,0 -86,39 -86,121 v 517 c 0,36 8,63 25,81 16,18 37,27 62,27 26,0 48,-9 64,-27 17,-17 26,-45 26,-81 v -155 c 0,-56 1,-104 5,-142 4,-39 10,-73 20,-102 10,-29 24,-51 42,-66 31,-25 76,-30 140,-9 32,10 43,12 48,12 16,0 33,-7 47,-21 15,-14 22,-31 22,-53 0,-30 -17,-54 -52,-73 z" />
        </g>
        <g
           id="id50"
           transform="translate(-572.45088,785.22234)"
           style="fill:#2b3990;fill-opacity:1">
          <path
             style="fill:#2b3990;fill-opacity:1;stroke:none"
             inkscape:connector-curvature="0"
             id="path4174"
             d="m 21395,2872 c 20,-31 40,-75 61,-130 l 242,-634 c 6,-17 11,-33 15,-48 4,-16 7,-28 9,-37 0,-12 -3,-25 -10,-37 -7,-12 -16,-21 -28,-28 -12,-7 -25,-11 -39,-11 -18,0 -33,3 -42,10 -10,6 -20,18 -29,37 -9,19 -20,47 -32,81 l -153,438 -162,-470 c -10,-32 -22,-56 -35,-72 -13,-16 -31,-24 -57,-24 -15,0 -29,4 -42,12 -14,7 -25,18 -32,31 -8,13 -12,27 -12,42 0,14 7,38 21,70 l 229,578 -17,43 c -13,30 -25,54 -35,70 -10,16 -21,28 -34,34 -13,7 -31,10 -53,10 -9,0 -19,-1 -31,-4 -10,-3 -19,-4 -29,-4 -24,0 -42,6 -54,16 -12,11 -18,26 -18,46 0,30 12,50 38,61 27,11 67,17 121,17 55,0 99,-8 131,-25 32,-17 58,-41 77,-72 z" />
        </g>
        <g
           id="id51"
           transform="translate(-572.45088,785.22234)"
           style="fill:#2b3990;fill-opacity:1">
          <path
             style="fill:#2b3990;fill-opacity:1;stroke:none"
             inkscape:connector-curvature="0"
             id="path4179"
             d="m 10145,1768 c 0,0 -9,28 0,37 8,9 51,12 51,12 v 534 l 85,61 72,-68 v -522 l 22,-5 c 34,9 42,-21 42,-21 v -28 z m 178,570 -24,10 v -523 l 24,-8 z m 64,-544 c -25,2 -187,-17 -187,-17 h 187 c 0,0 26,16 0,17 z" />
        </g>
        <g
           id="id52"
           transform="translate(-572.45088,785.22234)"
           style="fill:#2b3990;fill-opacity:1">
          <path
             style="fill:#2b3990;fill-opacity:1;stroke:none"
             inkscape:connector-curvature="0"
             id="path4184"
             d="m 10544,2000 -2,-1 c -14,-14 -33,-22 -53,-22 -43,0 -77,35 -77,77 0,20 7,39 22,54 l 1,1 c 2,3 5,5 8,7 53,47 84,115 84,185 0,137 -111,247 -248,247 -136,0 -247,-110 -247,-247 0,-69 29,-136 81,-182 22,-15 34,-39 34,-65 0,-42 -34,-77 -77,-77 -20,0 -39,8 -54,22 l -1,2 -1,-1 c -87,76 -136,186 -136,301 0,221 180,401 401,401 221,0 401,-180 401,-401 0,-115 -49,-225 -136,-301 z" />
        </g>
      </g>
    </g>
  </g>
  <style
     id="style231"
     type="text/css">
	.st0{fill:#8C2004;}
	.st1{fill:#5C8727;}
	.st2{fill:#FFFFFF;}
	.st3{fill:#FBB040;}
	.st4{fill:#EC008C;}
</style>
</svg>
